<?xml version="1.0" encoding="iso-8859-1"?>
<!-- Uploaded to: SVG Repo, www.svgrepo.com, Generator: SVG Repo Mixer Tools -->
<!DOCTYPE svg PUBLIC "-//W3C//DTD SVG 1.1//EN" "http://www.w3.org/Graphics/SVG/1.1/DTD/svg11.dtd">
<svg fill="#000000" version="1.1" id="Capa_1" xmlns="http://www.w3.org/2000/svg" xmlns:xlink="http://www.w3.org/1999/xlink" 
	 width="800px" height="800px" viewBox="0 0 172.687 172.687"
	 xml:space="preserve">
<g>
	<g>
		<path d="M84.866,140.97c-1.144,0-4.305-1.68-7.554-1.68c-5.721,0-12.254,1.686-12.254,1.68c0,0,4.891,2.923,12.13,3.256
			c2.309,0.104,5.021-0.607,7.671-0.607c3.218,0,6.26,0.514,8.947,0.363c6.453-0.353,10.856-3.012,10.856-3.012
			s-5.417-1.438-10.501-1.438C90.066,139.531,86.276,140.97,84.866,140.97z" fill="pink"/>
		<path d="M84.866,129.243c-12.361,0-22.415,11.727-22.415,11.727s10.053,14.162,22.415,14.162
			c12.365,0,22.412-14.162,22.412-14.162S97.231,129.243,84.866,129.243z M84.866,151.262c-12.368,0-19.804-10.292-19.804-10.292
			s10.972-7.77,13.58-7.584c2.604,0.186,6.225,2.949,6.225,2.949s4.549-2.949,7.714-2.949s12.088,7.584,12.088,7.584
			S97.231,151.262,84.866,151.262z" fill="pink"/>
		<path d="M78.058,103.99c0-7.814-6.356-14.161-14.162-14.161c-7.816,0-14.159,6.347-14.159,14.161
			c0,7.808,6.348,14.156,14.159,14.156C71.702,118.146,78.058,111.798,78.058,103.99z M69.019,100.226
			c3.549,1.707,4.468,5.526,4.683,7.037c0.219,1.51-2.996,0.562-3.103-0.4c-0.073-0.673,0.178-1.713-1.475-3.267l-0.048,0.969
			c-1.267,2.194-4.08,2.95-6.266,1.681c-2.192-1.265-2.941-4.051-1.697-6.238c-3.397-0.536-7.039-0.607-7.039-0.607
			S64.255,97.916,69.019,100.226z M55.409,105.369c0,0,3.221,1.488,6.058,2.08c2.554,0.524,8.909,0.814,8.909,0.814
			s-5.436,0.788-8.315,0.788C59.181,109.047,55.409,105.369,55.409,105.369z" fill=""/>
		<path d="M156.165,75.221c0.065-1.239,0.199-2.46,0.199-3.721c0-39.426-32.077-71.5-71.498-71.5C45.445,0,13.368,32.08,13.368,71.5
			c0,21.088,9.224,40.014,23.796,53.108c9.319,27.838,35.565,48.078,47.702,48.078c12.136,0,38.38-20.24,47.704-48.078
			c5.767-5.188,10.659-11.327,14.512-18.123c0.887-0.668,1.644-1.429,2.145-2.32l1.686-2.934l-0.87-0.448l0.011-0.027l1.932-1.116
			c4.192-2.413,6.677-8.77,7.214-13.663C159.702,81.372,158.605,77.58,156.165,75.221z M149.435,69.448l0.033,0.375l-0.252-0.391
			L149.435,69.448z M84.866,6.81c30.784,0,56.558,21.634,63.042,50.491c-3.146-4.685-8.323-8.215-13.319-8.215l-1.384,0.156
			c-26.277-24.476-64.7-29.735-93.145-24.285C51.694,13.746,67.473,6.81,84.866,6.81z M106.918,106.245
			c-2.189,1.27-5,0.514-6.261-1.681l-0.055-0.969c-1.653,1.554-1.401,2.594-1.472,3.267c-0.104,0.958-3.321,1.904-3.101,0.4
			c0.219-1.511,1.136-5.33,4.682-7.037c4.761-2.31,14.938-0.826,14.938-0.826s-3.633,0.076-7.037,0.607
			C109.861,102.194,109.108,104.985,106.918,106.245z M114.323,105.369c0,0-3.772,3.678-6.648,3.678c-2.892,0-8.32-0.789-8.32-0.789
			s6.359-0.284,8.909-0.82C111.098,106.857,114.323,105.369,114.323,105.369z M121.584,48.414c-3.493,0.695-6.699,2.465-9.179,5.453
			c-0.562,0.684-0.979,1.488-1.461,2.246c-7.639-4.011-16.535-5.995-26.078-5.995c-8.967,0-17.393,1.718-24.712,5.256
			c0.496-0.495,0.946-1.021,1.458-1.502c11.689-11.004,26.701-16.58,42.309-15.677C110.118,40.859,116.047,44.296,121.584,48.414z
			 M34.217,111.629c-8.764-11.042-14.042-24.975-14.042-40.124c0-14.082,4.573-27.081,12.238-37.71
			c15.331-4.684,35.457-5.727,55.054-1.037c-11.248,2.432-21.742,7.888-30.522,16.16c-8.523,8.024-14.703,18.06-17.703,28.016
			c-3.456,7.538-5.452,16.692-5.452,27.658C33.791,106.966,33.942,109.319,34.217,111.629z M84.866,168.177
			c-17.36,0-46.229-35.262-46.229-65.096c0-25.945,20.693-46.974,46.229-46.974c8.524,0,16.491,2.39,23.35,6.478
			c-0.686,2.942-0.816,6.035-0.257,9.006l0.58,2.851l-0.462,0.936c-1.948,4.73-1.696,10.025,0.493,14.731
			c-0.882-0.171-1.796-0.274-2.73-0.274c-7.807,0-14.162,6.349-14.162,14.156c0,7.813,6.355,14.161,14.162,14.161
			c7.82,0,14.156-6.348,14.156-14.161c0-1.769-0.354-3.441-0.952-5.007l3.917,0.771c0.121,1.078,0.374,2.092,0.799,3.021
			c1.298,2.802,3.997,4.53,7.037,5.488C127.799,136.844,101.231,168.177,84.866,168.177z M121.889,94.283
			c-0.053-0.592,0.761-1.691,2.146-2.993c-0.505,1.724-0.899,3.502-1.063,5.226L121.889,94.283z M135.514,111.629
			c0.101-0.804,0.088-1.63,0.143-2.446c0.515,0.033,1.028,0.061,1.523,0.061C136.608,110.031,136.115,110.863,135.514,111.629z
			 M150.365,96.849c-6.127-11.867-14.783-14.093-14.783-14.093s3.335,15.976,10.843,19.812c-2.788,4.87-17.039,4.695-19.732-1.149
			c-2.689-5.845,4.608-18.968,4.608-18.968s-15.003,7.686-12.317,13.229c-5.784-1.134-11.491-10.37-7.924-19.082
			c2.621-6.397,17.444,0.721,17.444,0.721s-14.058-12.184-17.373-6.329c-1.915-10.151,5.237-21.891,16.202-19.475
			c-8.682,7.984,4.183,22.72,4.183,22.72s-4.79-16.068-1.243-20.042c5.264-5.907,17.313,3.161,17.384,11.872
			c-6.167-0.465-12,11.825-12,11.825s13.444-4.774,18.191-0.459C158.573,81.766,155.029,94.162,150.365,96.849z M145.149,94.49
			c-0.229,0.602-0.442,1.204-0.694,1.796c-1.28-1.861-2.435-4.132-3.371-6.513C142.399,90.967,143.787,92.542,145.149,94.49z
			 M143.245,72.783l-0.607,0.05l0.384-0.429L143.245,72.783z" fill="black"/>
	</g>
</g>
</svg>